<svg width="150" height="54" viewBox="0 0 150 54" fill="none" xmlns="http://www.w3.org/2000/svg">
<mask id="mask0_325_55" style="mask-type:luminance" maskUnits="userSpaceOnUse" x="75" y="7" width="27" height="22">
<path d="M75.5195 7H102V28.1805H75.5195V7Z" fill="white"/>
</mask>
<g mask="url(#mask0_325_55)">
<path fill-rule="evenodd" clip-rule="evenodd" d="M96.0439 9.94797C83.5497 9.89142 76.8417 15.7248 76.2678 27.8001C76.2605 27.952 76.0385 27.9604 76.0175 27.8106C75.4604 23.8644 75.5682 20.2691 76.5694 17.1429C79.8747 6.82703 92.482 5.47393 101.427 8.73835C101.873 8.90172 101.963 9.47669 101.592 9.77307C94.6143 15.352 95.5642 30.5797 78.5813 23.9807C81.2341 15.7374 86.6716 10.6287 96.0439 9.94797Z" fill="black"/>
</g>
<mask id="mask1_325_55" style="mask-type:luminance" maskUnits="userSpaceOnUse" x="53" y="10" width="23" height="19">
<path d="M53 10.4863H75.4173V28.4495H53V10.4863Z" fill="white"/>
</mask>
<g mask="url(#mask1_325_55)">
<path fill-rule="evenodd" clip-rule="evenodd" d="M57.9325 13.0143C68.5699 12.9672 74.2797 17.9334 74.7688 28.2137C74.7751 28.3425 74.9636 28.3498 74.9825 28.222C75.4569 24.8634 75.3647 21.8021 74.5122 19.141C71.6981 10.3584 60.9655 9.20633 53.3496 11.9858C52.9704 12.1241 52.894 12.6132 53.2092 12.8666C59.1495 17.6161 58.341 30.5795 72.7989 24.9618C70.5409 17.9439 65.9118 13.5945 57.9325 13.0143Z" fill="black"/>
</g>
<path d="M38.9854 45V34.5273H45.2649V35.6523H40.2535V39.1909H44.7945V40.3159H40.2535V45H38.9854ZM46.5587 45H45.2291L49.0746 34.5273H50.3837L54.2291 45H52.8996L49.77 36.1841H49.6882L46.5587 45ZM47.0496 40.9091H52.4087V42.0341H47.0496V40.9091ZM55.8604 45V34.5273H59.399C60.2172 34.5273 60.8888 34.667 61.4138 34.9466C61.9388 35.2227 62.3274 35.6028 62.5797 36.0869C62.832 36.571 62.9581 37.1216 62.9581 37.7386C62.9581 38.3557 62.832 38.9028 62.5797 39.3801C62.3274 39.8574 61.9405 40.2324 61.4189 40.5051C60.8973 40.7744 60.2308 40.9091 59.4195 40.9091H56.5558V39.7636H59.3785C59.9376 39.7636 60.3876 39.6818 60.7286 39.5182C61.0729 39.3545 61.3217 39.1227 61.4751 38.8227C61.632 38.5193 61.7104 38.158 61.7104 37.7386C61.7104 37.3193 61.632 36.9528 61.4751 36.6392C61.3183 36.3256 61.0678 36.0835 60.7234 35.9131C60.3791 35.7392 59.924 35.6523 59.3581 35.6523H57.1285V45H55.8604ZM60.7899 40.2955L63.3672 45H61.8945L59.3581 40.2955H60.7899ZM65.0713 34.5273H66.5849L70.144 43.2205H70.2668L73.8259 34.5273H75.3395V45H74.1531V37.0432H74.0509L70.7781 45H69.6327L66.3599 37.0432H66.2577V45H65.0713V34.5273ZM79.7845 45L76.9209 34.5273H78.2095L80.3982 43.0568H80.5004L82.73 34.5273H84.1618L86.3913 43.0568H86.4936L88.6822 34.5273H89.9709L87.1072 45H85.7982L83.4868 36.6545H83.405L81.0936 45H79.7845ZM92.8192 34.5273V45H91.551V34.5273H92.8192ZM101.089 37.1455C101.028 36.6273 100.779 36.225 100.343 35.9386C99.9063 35.6523 99.371 35.5091 98.7369 35.5091C98.2733 35.5091 97.8676 35.5841 97.5199 35.7341C97.1756 35.8841 96.9063 36.0903 96.7119 36.3528C96.521 36.6153 96.4256 36.9136 96.4256 37.2477C96.4256 37.5273 96.492 37.7676 96.625 37.9687C96.7614 38.1665 96.9352 38.3318 97.1466 38.4648C97.358 38.5943 97.5795 38.7017 97.8114 38.7869C98.0432 38.8687 98.2563 38.9352 98.4506 38.9864L99.5142 39.2727C99.7869 39.3443 100.09 39.4432 100.424 39.5693C100.762 39.6955 101.084 39.8676 101.391 40.0858C101.701 40.3006 101.957 40.5767 102.158 40.9142C102.359 41.2517 102.46 41.6659 102.46 42.1568C102.46 42.7227 102.311 43.2341 102.015 43.6909C101.722 44.1477 101.292 44.5108 100.726 44.7801C100.164 45.0494 99.4801 45.1841 98.6756 45.1841C97.9256 45.1841 97.2761 45.0631 96.7273 44.821C96.1818 44.579 95.7523 44.2415 95.4386 43.8085C95.1284 43.3756 94.9528 42.8727 94.9119 42.3H96.221C96.2551 42.6955 96.3881 43.0227 96.6199 43.2818C96.8551 43.5375 97.1517 43.7284 97.5097 43.8545C97.871 43.9773 98.2597 44.0386 98.6756 44.0386C99.1597 44.0386 99.5943 43.9602 99.9795 43.8034C100.365 43.6432 100.67 43.4216 100.895 43.1386C101.12 42.8523 101.232 42.5182 101.232 42.1364C101.232 41.7886 101.135 41.5057 100.941 41.2875C100.747 41.0693 100.491 40.892 100.174 40.7557C99.8568 40.6193 99.5142 40.5 99.146 40.3977L97.8574 40.0295C97.0392 39.7943 96.3915 39.4585 95.9142 39.0222C95.4369 38.5858 95.1983 38.0148 95.1983 37.3091C95.1983 36.7227 95.3568 36.2114 95.6739 35.775C95.9943 35.3352 96.4239 34.9943 96.9625 34.7523C97.5045 34.5068 98.1097 34.3841 98.7778 34.3841C99.4528 34.3841 100.053 34.5051 100.578 34.7472C101.103 34.9858 101.519 35.3131 101.826 35.729C102.136 36.1449 102.299 36.617 102.316 37.1455H101.089ZM104.545 45V34.5273H110.865V35.6523H105.813V39.1909H110.538V40.3159H105.813V43.875H110.947V45H104.545Z" fill="black"/>
</svg>
